<svg width="45" height="34" viewBox="0 0 45 34" fill="none" xmlns="http://www.w3.org/2000/svg">
<path d="M27.3343 33.9991H0L0.0299419 31.7714C0.436799 24.6812 6.41901 19.5917 13.5311 19.5274C20.8845 19.4606 27.1634 24.8054 27.2885 32.1338L27.3343 34V33.9991Z" fill="black"/>
<path d="M45 28.273L44.9965 31.6043L29.9067 31.6437C29.6601 27.0829 27.3845 22.9727 23.736 20.2206C26.0855 18.0777 29.1423 17.1274 32.3223 17.0872C38.9843 17.0023 44.5245 21.8862 45 28.273Z" fill="black"/>
<path d="M19.4842 14.4113C16.1624 17.8917 10.6893 17.7178 7.55856 14.1277C4.99325 11.1862 4.72377 6.83271 6.9518 3.58364C8.55281 1.24879 11.2352 -0.162393 14.1255 0.0149697C16.4011 0.154632 18.4072 1.21281 19.8391 2.91189C22.6616 6.26121 22.5181 11.2316 19.4834 14.4105L19.4842 14.4113Z" fill="black"/>
<path d="M37.5427 13.3497C34.9096 16.34 30.391 16.5114 27.5404 13.7764C24.643 10.9969 24.5224 6.36232 27.255 3.43027C29.7939 0.705569 34.0034 0.450236 36.8373 2.89647C39.9257 5.56204 40.2516 10.2729 37.5427 13.3497Z" fill="black"/>
</svg>
